<svg width="24" height="24" viewBox="0 0 24 24" fill="none" xmlns="http://www.w3.org/2000/svg">
<path d="M3.68701 7.77266C3.59153 7.68244 3.47923 7.61191 3.3565 7.56509C3.23377 7.51828 3.10302 7.49609 2.97172 7.49981C2.84042 7.50352 2.71113 7.53306 2.59125 7.58674C2.47136 7.64042 2.36322 7.71719 2.27301 7.81266C2.18279 7.90813 2.11226 8.02043 2.06544 8.14316C2.01863 8.26589 1.99644 8.39664 2.00016 8.52794C2.00387 8.65924 2.03341 8.78853 2.08709 8.90841C2.14077 9.0283 2.21753 9.13644 2.31301 9.22666L11.313 17.7267C11.4987 17.9022 11.7445 18 12 18C12.2555 18 12.5013 17.9022 12.687 17.7267L21.688 9.22666C21.7856 9.13704 21.8643 9.02892 21.9198 8.90859C21.9752 8.78827 22.0062 8.65813 22.0109 8.52573C22.0156 8.39334 21.9939 8.26133 21.9472 8.13737C21.9004 8.01341 21.8295 7.89998 21.7386 7.80366C21.6476 7.70734 21.5384 7.63005 21.4173 7.57629C21.2963 7.52252 21.1657 7.49335 21.0333 7.49046C20.9008 7.48758 20.7691 7.51104 20.6458 7.55948C20.5225 7.60793 20.4101 7.68039 20.315 7.77266L12 15.6247L3.68701 7.77266V7.77266Z" fill="white"/>
</svg>
