<svg width="24" height="24" viewBox="0 0 24 24" fill="none" xmlns="http://www.w3.org/2000/svg">
<path d="M20.313 17.2273C20.4085 17.3176 20.5208 17.3881 20.6435 17.4349C20.7662 17.4817 20.897 17.5039 21.0283 17.5002C21.1596 17.4965 21.2889 17.4669 21.4088 17.4133C21.5286 17.3596 21.6368 17.2828 21.727 17.1873C21.8172 17.0919 21.8877 16.9796 21.9346 16.8568C21.9814 16.7341 22.0036 16.6034 21.9998 16.4721C21.9961 16.3408 21.9666 16.2115 21.9129 16.0916C21.8592 15.9717 21.7825 15.8636 21.687 15.7733L12.687 7.27334C12.5013 7.09781 12.2555 7 12 7C11.7445 7 11.4987 7.09781 11.313 7.27334L2.31199 15.7733C2.21443 15.863 2.13565 15.9711 2.08023 16.0914C2.0248 16.2117 1.99384 16.3419 1.98914 16.4743C1.98443 16.6067 2.00608 16.7387 2.05283 16.8626C2.09957 16.9866 2.17048 17.1 2.26144 17.1963C2.35239 17.2927 2.46158 17.3699 2.58265 17.4237C2.70373 17.4775 2.83428 17.5067 2.96673 17.5095C3.09918 17.5124 3.23088 17.489 3.35418 17.4405C3.47748 17.3921 3.58993 17.3196 3.68499 17.2273L12 9.37534L20.313 17.2273V17.2273Z" fill="white"/>
</svg>
