<svg width="24" height="24" viewBox="0 0 24 24" fill="none" xmlns="http://www.w3.org/2000/svg">
<path d="M8.50004 16.586L4.70704 12.793C4.51844 12.6108 4.26584 12.51 4.00364 12.5123C3.74144 12.5146 3.49063 12.6198 3.30522 12.8052C3.11981 12.9906 3.01465 13.2414 3.01237 13.5036C3.01009 13.7658 3.11088 14.0184 3.29304 14.207L7.79304 18.707C7.98057 18.8945 8.23488 18.9998 8.50004 18.9998C8.76521 18.9998 9.01951 18.8945 9.20704 18.707L20.207 7.70698C20.3892 7.51838 20.49 7.26578 20.4877 7.00358C20.4854 6.74138 20.3803 6.49057 20.1949 6.30516C20.0095 6.11975 19.7586 6.01458 19.4964 6.01231C19.2342 6.01003 18.9816 6.11082 18.793 6.29298L8.50004 16.586Z" fill="#1C1C1C"/>
</svg>
