<svg width="24" height="24" viewBox="0 0 24 24" fill="none" xmlns="http://www.w3.org/2000/svg">
<path d="M21.0301 2.97C21.7011 3.641 22.0781 4.55107 22.0781 5.5C22.0781 6.44893 21.7011 7.359 21.0301 8.03L9.06211 20C8.78526 20.277 8.44091 20.4769 8.06311 20.58L2.94711 21.975C2.8196 22.0096 2.68522 22.0099 2.55756 21.9759C2.42989 21.9418 2.31349 21.8747 2.22011 21.7812C2.12674 21.6877 2.05972 21.5713 2.02583 21.4436C1.99194 21.3159 1.99238 21.1815 2.02711 21.054L3.42211 15.938C3.52521 15.5602 3.72514 15.2159 4.00211 14.939L15.9701 2.97C16.6411 2.29901 17.5512 1.92206 18.5001 1.92206C19.449 1.92206 20.3591 2.29901 21.0301 2.97V2.97ZM15.0001 6.06L5.06211 16C4.96991 16.0923 4.90338 16.2071 4.86911 16.333L3.81911 20.183L7.66911 19.133C7.7945 19.0978 7.90858 19.0306 8.00011 18.938L17.9401 9L15.0001 6.06ZM17.0301 4.03L16.0601 5L19.0001 7.94L19.9701 6.97C20.3535 6.57879 20.567 6.05209 20.5642 5.50435C20.5615 4.95661 20.3427 4.43209 19.9553 4.04478C19.568 3.65746 19.0435 3.43864 18.4958 3.43588C17.948 3.43311 17.4213 3.64662 17.0301 4.03V4.03Z" fill="white"/>
</svg>
