<svg width="24" height="24" viewBox="0 0 24 24" fill="none" xmlns="http://www.w3.org/2000/svg">
<path d="M4.20998 4.38702L4.29298 4.29302C4.46518 4.12084 4.69428 4.01741 4.9373 4.00213C5.18033 3.98685 5.42058 4.06077 5.61298 4.21002L5.70698 4.29302L12 10.585L18.293 4.29302C18.3852 4.19751 18.4956 4.12133 18.6176 4.06892C18.7396 4.01651 18.8708 3.98892 19.0036 3.98777C19.1364 3.98662 19.268 4.01192 19.3909 4.0622C19.5138 4.11248 19.6255 4.18673 19.7194 4.28062C19.8133 4.37452 19.8875 4.48617 19.9378 4.60907C19.9881 4.73196 20.0134 4.86364 20.0122 4.99642C20.0111 5.1292 19.9835 5.26042 19.9311 5.38242C19.8787 5.50443 19.8025 5.61477 19.707 5.70702L13.415 12L19.707 18.293C19.8792 18.4652 19.9826 18.6943 19.9979 18.9373C20.0132 19.1804 19.9392 19.4206 19.79 19.613L19.707 19.707C19.5348 19.8792 19.3057 19.9826 19.0627 19.9979C18.8196 20.0132 18.5794 19.9393 18.387 19.79L18.293 19.707L12 13.415L5.70698 19.707C5.51838 19.8892 5.26578 19.99 5.00358 19.9877C4.74139 19.9854 4.49057 19.8802 4.30516 19.6948C4.11976 19.5094 4.01459 19.2586 4.01231 18.9964C4.01003 18.7342 4.11083 18.4816 4.29298 18.293L10.585 12L4.29298 5.70702C4.12081 5.53483 4.01738 5.30573 4.00209 5.0627C3.98681 4.81968 4.06073 4.57942 4.20998 4.38702L4.29298 4.29302L4.20998 4.38702Z" fill="white"/>
</svg>
